<svg xmlns="http://www.w3.org/2000/svg" viewBox="0 0 800 420" fill="none">
  <defs>
    <linearGradient id="tbg" x1="0" y1="0" x2="0" y2="420">
      <stop offset="0%" stop-color="#1a1b26"/>
      <stop offset="100%" stop-color="#16161e"/>
    </linearGradient>
  </defs>
  <rect width="800" height="420" rx="12" fill="url(#tbg)"/>
  <rect x="0.5" y="0.5" width="799" height="419" rx="11.5" stroke="#414868" stroke-opacity="0.4" fill="none"/>
  
  <!-- Title bar -->
  <rect width="800" height="36" rx="12" fill="#1e1e2e"/>
  <rect y="24" width="800" height="12" fill="#1e1e2e"/>
  <circle cx="20" cy="18" r="5.5" fill="#f38ba8"/>
  <circle cx="38" cy="18" r="5.5" fill="#f9e2af"/>
  <circle cx="56" cy="18" r="5.5" fill="#a6e3a1"/>
  <text x="400" y="22" text-anchor="middle" fill="#6c7086" font-family="monospace" font-size="11">Terminal вҖ” bash xyvaclaw-setup.sh --auto</text>
  
  <!-- Terminal content -->
  <g font-family="monospace" font-size="12.5">
    <text x="20" y="64" fill="#89b4fa">
      <tspan fill="#cba6f7">  в–Ҳв–Ҳв•—  в–Ҳв–Ҳв•—в–Ҳв–Ҳв•—   в–Ҳв–Ҳв•—в–Ҳв–Ҳв•—   в–Ҳв–Ҳв•— в–Ҳв–Ҳв–Ҳв–Ҳв–Ҳв•—</tspan>
    </text>
    <text x="20" y="80" fill="#cba6f7">   в•ҡв–Ҳв–Ҳв–Ҳв•”в•қ  в•ҡв–Ҳв–Ҳв–Ҳв–Ҳв•”в•қ в–Ҳв–Ҳв•‘   в–Ҳв–Ҳв•‘в–Ҳв–Ҳв–Ҳв–Ҳв–Ҳв–Ҳв–Ҳв•‘</text>
    <text x="20" y="96" fill="#cba6f7">  в–Ҳв–Ҳв•”в•қ в–Ҳв–Ҳв•—   в–Ҳв–Ҳв•‘    в•ҡв–Ҳв–Ҳв–Ҳв–Ҳв•”в•қ в–Ҳв–Ҳв•‘  в–Ҳв–Ҳв•‘</text>
    
    <text x="20" y="120" fill="#a6adc8">  Your AI Assistant Platform</text>
    
    <text x="20" y="152" fill="#a6e3a1">[1/7]</text><text x="70" y="152" fill="#cdd6f4"> жЈҖжҹҘзі»з»ҹзҺҜеўғ...</text>
    <text x="30" y="170" fill="#a6e3a1">вң…</text><text x="50" y="170" fill="#bac2de"> Node.js 22.11.0</text>
    <text x="30" y="188" fill="#a6e3a1">вң…</text><text x="50" y="188" fill="#bac2de"> Python 3.12.3</text>
    <text x="30" y="206" fill="#a6e3a1">вң…</text><text x="50" y="206" fill="#bac2de"> ffmpeg</text>
    
    <text x="20" y="232" fill="#a6e3a1">[2/7]</text><text x="70" y="232" fill="#cdd6f4"> е®үиЈ… OpenClaw иҝҗиЎҢж—¶...</text>
    <text x="30" y="250" fill="#a6e3a1">вң…</text><text x="50" y="250" fill="#bac2de"> OpenClaw е·Іе®үиЈ… (0.30.1)</text>
    
    <text x="20" y="276" fill="#a6e3a1">[3/7]</text><text x="70" y="276" fill="#cdd6f4"> еҲӣе»ә xyvaClaw ж•°жҚ®зӣ®еҪ•...</text>
    <text x="30" y="294" fill="#a6e3a1">вң…</text><text x="50" y="294" fill="#bac2de"> agents/ workspace/ extensions/ config/ scripts/</text>
    
    <text x="20" y="320" fill="#a6e3a1">[4/7]</text><text x="70" y="320" fill="#cdd6f4"> й…ҚзҪ® xyvaClaw...</text>
    <text x="30" y="338" fill="#89b4fa">в„№</text><text x="50" y="338" fill="#bac2de"> ж— дәәеҖје®ҲжЁЎејҸпјҡд»ҺзҺҜеўғеҸҳйҮҸеҶҷе…Ҙй…ҚзҪ®...</text>
    <text x="30" y="356" fill="#a6e3a1">вң…</text><text x="50" y="356" fill="#bac2de"> API Key е·Ід»ҺзҺҜеўғеҸҳйҮҸеҶҷе…Ҙ</text>
    
    <text x="20" y="382" fill="#a6e3a1">[5/7]</text><text x="70" y="382" fill="#cdd6f4"> з”ҹжҲҗиә«д»Ҫж–Үд»¶...</text>
    <text x="30" y="400" fill="#a6e3a1">вң…</text><text x="50" y="400" fill="#bac2de"> SOUL.md  IDENTITY.md  AGENTS.md  MEMORY.md</text>
  </g>
</svg>
